<svg xmlns="http://www.w3.org/2000/svg" viewBox="0 0 640 400"><rect width="640" height="400" fill="#f3e3bf"/><rect x="92" y="42" width="456" height="318" rx="18" fill="#fffaf0" stroke="#d4b47b" stroke-width="6" transform="rotate(-2 320 200)"/><path d="M156 120h330M156 180h330M156 240h330M156 300h250" stroke="#dfcaa6" stroke-width="5" stroke-linecap="round"/><g fill="none" stroke="#b77928" stroke-width="8" stroke-linecap="round" stroke-linejoin="round"><rect x="122" y="96" width="34" height="34" rx="6"/><path d="M129 111l10 10 21-27"/><rect x="122" y="156" width="34" height="34" rx="6"/><path d="M129 171l10 10 21-27"/><rect x="122" y="216" width="34" height="34" rx="6"/></g><path d="M455 276c55-21 99 20 73 65-25 44-82 17-85-18-2-20 6-37 12-47z" fill="#c16b51" opacity=".7"/><path d="M472 298l17 16 31-40" fill="none" stroke="#fffaf0" stroke-width="9" stroke-linecap="round" stroke-linejoin="round"/></svg>
