<svg xmlns="http://www.w3.org/2000/svg" viewBox="0 0 640 400"><rect width="640" height="400" fill="#f1ddd4"/><circle cx="110" cy="84" r="65" fill="#e7b9a9" opacity=".55"/><circle cx="545" cy="310" r="90" fill="#d8dfca" opacity=".7"/><g transform="translate(116 66)"><path d="M46 234h370v62H46z" fill="#9c6859"/><path d="M10 174h405v66H10z" fill="#d09172"/><path d="M64 111h320v70H64z" fill="#718363"/><path d="M25 45h375v73H25z" fill="#c27467"/><g fill="#fff7e9"><rect x="74" y="253" width="250" height="9" rx="4"/><rect x="70" y="194" width="285" height="9" rx="4"/><rect x="110" y="137" width="215" height="9" rx="4"/><rect x="80" y="72" width="270" height="9" rx="4"/></g><path d="M190 45v73l35-22 34 22V45" fill="#f4d4ad"/></g><g fill="none" stroke="#b7664d" stroke-width="7" stroke-linecap="round"><path d="M89 277c-34-42-63-24-54 9 8 29 54 48 54 48s47-23 50-52c4-36-29-46-50-5z"/><path d="M535 92c-20-25-39-14-34 5 5 18 34 29 34 29s28-14 30-31c2-21-18-27-30-3z"/></g></svg>
