<svg xmlns="http://www.w3.org/2000/svg" viewBox="0 0 640 400"><defs><linearGradient id="b" x1="0" y1="0" x2="1" y2="1"><stop stop-color="#efe1d2"/><stop offset="1" stop-color="#d5c0a7"/></linearGradient></defs><rect width="640" height="400" fill="url(#b)"/><rect x="42" y="42" width="556" height="300" rx="20" fill="#f7efe5"/><path d="M78 79h484v225H78z" fill="#c19f7d" opacity=".35"/><g fill="#fffaf2" stroke="#9c7659" stroke-width="5"><rect x="110" y="105" width="110" height="120" transform="rotate(-5 165 165)"/><rect x="260" y="92" width="120" height="138" transform="rotate(3 320 161)"/><rect x="420" y="115" width="102" height="112" transform="rotate(-3 471 171)"/></g><g fill="#b7654b"><circle cx="165" cy="158" r="26"/><path d="M137 206l28-36 31 36z"/></g><g fill="#748461"><circle cx="321" cy="151" r="30"/><path d="M286 212l38-44 37 44z"/></g><g fill="#c99368"><circle cx="470" cy="162" r="24"/><path d="M445 208l25-32 28 32z"/></g><path d="M72 322h496" stroke="#8a694f" stroke-width="8" stroke-linecap="round" opacity=".35"/></svg>
